<svg id="Layer_1" data-name="Layer 1" xmlns="http://www.w3.org/2000/svg" viewBox="0 0 21 21"><defs><style>.cls-1{fill:#3c424f;}</style></defs><path class="cls-1" d="M20.79,7.53V21H7.29V7.53Zm0-1.5H7.29a1.52,1.52,0,0,0-1.06.44,1.5,1.5,0,0,0-.44,1.06V21a1.5,1.5,0,0,0,1.5,1.5h13.5a1.5,1.5,0,0,0,1.06-.44A1.47,1.47,0,0,0,22.29,21V7.53a1.46,1.46,0,0,0-.44-1.06A1.5,1.5,0,0,0,20.79,6Z" transform="translate(-1.29 -1.53)"/><path class="cls-1" d="M2.79,13.53H1.29V3A1.5,1.5,0,0,1,1.73,2a1.52,1.52,0,0,1,1.06-.44h10.5V3H2.79Z" transform="translate(-1.29 -1.53)"/></svg>