<svg id="Layer_1" data-name="Layer 1" xmlns="http://www.w3.org/2000/svg" viewBox="0 0 164 99"><defs><style>.cls-1,.cls-2{fill:#0f0f0f;}.cls-2{fill-rule:evenodd;}.cls-3{fill:#fff;}</style></defs><path class="cls-1" d="M25.53,7c-5.87,0-11.37.24-17.92,0v3.06c2.69.18,4,.3,4,2.51V38.8c0,2-1.53,2.45-4.59,3V45c2.81-.37,5.75-1.22,10.09-1.22C23,43.76,26.51,45,30.24,45c1.22,0,16-.12,16-19C46.27,11.71,37.4,7,25.53,7Zm1.53,35c-2-.06-4,0-4-1.65V10.24a14.92,14.92,0,0,1,1.72-.12c5.38.18,8.68,4.77,8.68,15.41C33.42,35,31.59,42.05,27.06,42Z"/><path class="cls-1" d="M78.48,35.5v-14c0-7.1-6.3-7.71-12.6-7.71-8.56,0-15.11,3.73-15.11,8.44,0,2.38,1.35,4,4.34,4,8.44,0,3-9.72,10-9.72,1,0,2.21.43,2.33,3.36l.12,5.69c-13.09,2.63-18.29,6-18.29,12.42,0,5.26,4.22,7.89,9.42,7.89,6.06,0,8.2-3.86,9.36-7.46l-.49,4.34c-.18,2.08.61,3.12,2.45,3.12,1.53,0,5.5-2.69,12.6-4.53V37.89C80.19,38.5,78.48,37.89,78.48,35.5ZM63,41.07c-1.83,0-2.93-1.78-2.93-4.16s.67-7.52,7.46-8.81v5.57C67.35,36.05,66.06,41.07,63,41.07Z"/><path class="cls-1" d="M105.38,13.85c-4.16,0-6.24,1.35-7.71,2.81v-.61c0-1.77-.42-2.69-2.2-2.69s-5.2,3.55-12.66,5.2v3.12c2.26-.43,4-.06,4,2.45V49.26c0,6.42-2,5.69-2,7.59,0,.91.61,1.4,1.71,1.4,2.33,0,7.65-3.3,15.72-5V49.87c-2.87.49-4.59.19-4.59-2.32V43.33a8.62,8.62,0,0,0,6.18,2.81c5.93,0,15.29-5.75,15.29-15.41C119.14,19.23,110.27,13.85,105.38,13.85ZM104,43.09c-2.26,0-5.26-2.27-6.3-7V19.78c1.47-1.53,2.76-2.44,4.35-2.44,2.69,0,5.32,5.87,5.32,17.18C107.34,37.46,107,43.09,104,43.09Z"/><path class="cls-1" d="M142.84,13.85c-4.16,0-6.23,1.35-7.7,2.81v-.61c0-1.77-.43-2.69-2.2-2.69s-5.2,3.55-12.66,5.2v3.12c2.26-.43,4-.06,4,2.45V49.26c0,6.42-2,5.69-2,7.59,0,.91.62,1.4,1.72,1.4,2.32,0,7.64-3.3,15.72-5V49.87c-2.88.49-4.59.19-4.59-2.32V43.33a8.62,8.62,0,0,0,6.18,2.81c5.93,0,15.29-5.75,15.29-15.41C156.61,19.23,147.74,13.85,142.84,13.85Zm-1.4,29.24c-2.26,0-5.26-2.27-6.3-7V19.78c1.47-1.53,2.75-2.44,4.34-2.44,2.69,0,5.32,5.87,5.32,17.18C144.8,37.46,144.43,43.09,141.44,43.09Z"/><path class="cls-1" d="M49.38,56.06V53c-6.85.18-12.94.18-19.79,0v3.06c3.49.18,3.65.73,3.65,2.26V70.37H23.15V58.32c0-1.53.16-2.08,3.64-2.26V53c-6.85.18-12.88.18-19.79,0v3.06c3.55.18,4.71.73,4.71,2.26V85.6c0,1.53-1.16,2.14-4.71,2.26V91c6.91-.18,12.94-.18,19.79,0V87.86c-3.48-.12-3.64-.73-3.64-2.26V73.49H33.24V85.6c0,1.53-.16,2.14-3.65,2.26V91c6.85-.18,12.94-.18,19.79,0V87.86c-3.48-.12-4.64-.73-4.64-2.26V58.32C44.74,56.79,45.9,56.24,49.38,56.06Z"/><path class="cls-1" d="M80,83.7h-.67c-.86,0-1,.19-1.47.92A7.34,7.34,0,0,1,71,88.47c-6.36,0-6.91-6.42-7.16-11.07H77.69c3.42,0,4.77-2.14,4.77-5.38,0-5.87-5.08-12.17-13.95-12.17-7.34,0-15.35,5.08-15.35,15.54,0,10.64,7.52,16.2,16.45,16.2,5,0,8.32-1.71,10.83-5.38C81.3,84.86,81.17,83.7,80,83.7ZM72.3,73.55H63.8C63.86,66.94,65.09,63,68.39,63,71.45,63,72.3,67,72.3,73.55Z"/><path class="cls-1" d="M114.26,59.73c-4.64,0-8,2.51-10.27,9.48l.92-6.67c.24-2-.43-3.18-2.2-3.18-2,0-5.33,3.61-12.79,5.26v3.12c2.27-.43,4-.06,4,2.45V85.6c0,1.53-1.65,2-3.86,2.26V91c6.3-.12,12.73-.12,19,0V87.86c-2.63-.24-4.16-.73-4.16-2.26V74.16c.3-2,.61-6.24,4.46-6.24,1.41,0,2.88,1.41,5.57,1.41a4.61,4.61,0,0,0,4.64-4.59A5,5,0,0,0,114.26,59.73Z"/><path class="cls-1" d="M140.64,59.85c-6.91,0-16,4.1-16,16,0,11,9.11,15.72,16,15.72s16-4.71,16-16.2S147.49,59.85,140.64,59.85Zm4.41,18.35c0,5.93-.8,10.27-3.67,10.27-3.18,0-5.14-5.93-5.14-15.16,0-6,1-10.28,3.67-10.28C143.09,63,145.05,68.72,145.05,78.2Z"/><path class="cls-2" d="M3.1,2.32A6.51,6.51,0,0,1,7.85.5c4.22.16,7.84.11,11.6.06,2,0,3.95-.06,6.08-.06,6.62,0,13.53,1.28,18.88,5.56a20.63,20.63,0,0,1,5.16,6.09,18.58,18.58,0,0,1,2.36-1.57A28.81,28.81,0,0,1,65.88,7.29c3,0,7.5.08,11.28,1.74a13.35,13.35,0,0,1,4.45,3.14,24.51,24.51,0,0,0,6.5-2.53L89,9.16c.61-.35,1.33-.76,1.79-1h0a10.26,10.26,0,0,1,4.69-1.3A9.29,9.29,0,0,1,100.05,8a20.26,20.26,0,0,1,5.33-.66,19.53,19.53,0,0,1,12.42,5.2,7.42,7.42,0,0,1,1.07-.34,24.17,24.17,0,0,0,6.7-2.57l.86-.48c.62-.35,1.33-.76,1.79-1h0a10.35,10.35,0,0,1,4.7-1.3A9.28,9.28,0,0,1,137.51,8a20.37,20.37,0,0,1,5.33-.66c8.39,0,20.27,8.19,20.27,23.38A21.31,21.31,0,0,1,155.42,47a24.31,24.31,0,0,1-9.19,4.95v1.3a6,6,0,0,1,0,.74,23,23,0,0,1,9,4.23c4.74,3.71,7.91,9.49,7.91,17.18S160,88.94,155.34,92.8a23.25,23.25,0,0,1-29.41.1,21.31,21.31,0,0,1-7.81-17v-.52a11.07,11.07,0,0,1-3.18.48,14.24,14.24,0,0,1-3.53-.45V81.8a6.5,6.5,0,0,1,4.16,6.06V91a6.51,6.51,0,0,1-6.63,6.5c-6.22-.12-12.55-.12-18.77,0a6.5,6.5,0,0,1-6.45-5,17.35,17.35,0,0,1-4.84,3.61,20.33,20.33,0,0,1-9.27,2,23.93,23.93,0,0,1-14.29-4.45,6.75,6.75,0,0,1-1.4,2,6.52,6.52,0,0,1-4.71,1.84c-6.73-.18-12.71-.18-19.45,0a6.85,6.85,0,0,1-1.57-.15,6.85,6.85,0,0,1-1.57.15c-6.73-.18-12.65-.18-19.45,0A6.51,6.51,0,0,1,.5,91V87.86a6.5,6.5,0,0,1,4.71-6.25V62.31A6.51,6.51,0,0,1,.5,56.06V53a6.52,6.52,0,0,1,1.38-4A6.47,6.47,0,0,1,.5,45V41.8a6.5,6.5,0,0,1,4.59-6.21V16.05a6.5,6.5,0,0,1-4-6V7A6.49,6.49,0,0,1,3.1,2.32ZM8.52,16.66h0ZM5.09,12.58h0Zm6.62,73c0,1.53-1.16,2.14-4.71,2.26V91h.11c2.2-.06,4.31-.1,6.39-.12l2.9,0h3.89l2.8,0,3.6.08h.1V87.86c-2.63-.09-3.37-.46-3.57-1.3a4.59,4.59,0,0,1-.07-1V73.49H33.24V85.6a4,4,0,0,1-.08,1c-.2.84-.93,1.21-3.57,1.3V91h.11l3.59-.08,2.8,0H40l2.84,0c2.09,0,4.21.06,6.4.12h.1V87.86c-3.48-.12-4.64-.73-4.64-2.26V58.32c0-1.53,1.16-2.08,4.64-2.26V53h-.16c-2.17.06-4.26.1-6.34.12l-2.88,0H38.25l-2.16,0-2.8,0c-1.16,0-2.34,0-3.54-.08h-.16v3.06c2.63.14,3.37.48,3.57,1.31a3.83,3.83,0,0,1,.08,1V70.37H23.15V58.32a4.44,4.44,0,0,1,.07-1c.2-.83.94-1.17,3.57-1.31V53h-.16c-1.2,0-2.38.06-3.54.08l-2.8,0-2.15,0h-1.7l-2.94,0c-2.06,0-4.16-.06-6.34-.12H7v3.06c3.55.18,4.71.73,4.71,2.26Zm32.51-39,1.37,0c-.18-.23-.35-.46-.51-.7C44.8,46.13,44.51,46.37,44.22,46.6Zm-1.46-7.81q.3-.4.57-.84a20.37,20.37,0,0,0,2.84-9.47c0-.11,0-.21,0-.32.05-.7.08-1.44.08-2.2A29.18,29.18,0,0,0,46,22.23a21.67,21.67,0,0,0-1-4.26,15,15,0,0,0-10-9.63A30.64,30.64,0,0,0,25.53,7h-.79L22.62,7l-2.86,0-2.42,0H14.11c-2,0-4.09,0-6.29-.1H7.61v3.06c2.69.18,4,.3,4,2.51V38.8c0,2-1.53,2.45-4.59,3V45l.56-.08c.65-.1,1.32-.21,2-.34,1.2-.22,2.48-.45,3.93-.6,1-.11,2-.18,3.12-.2h.67a52.44,52.44,0,0,1,7.91.71c.61.1,1.2.18,1.78.26h0a25.32,25.32,0,0,0,3.22.24,17.08,17.08,0,0,0,5.5-1A14.71,14.71,0,0,0,42.76,38.79ZM23,40.33c0,1.54,1.82,1.59,3.65,1.64h.39a4,4,0,0,0,3.18-1.5,8.23,8.23,0,0,0,1.29-2.11c1.31-3,1.89-7.51,1.89-12.84s-.8-9-2.26-11.51A8.14,8.14,0,0,0,29.52,12,7.07,7.07,0,0,0,26,10.24l-.42-.06c-.26,0-.52,0-.79-.06a14.92,14.92,0,0,0-1.72.12ZM51.14,24.12a3.2,3.2,0,0,0,1.62,1.64,5.6,5.6,0,0,0,2.35.44,5.73,5.73,0,0,0,3.49-.92A3,3,0,0,0,59,25a7.53,7.53,0,0,0,1.74-4v0c0-.19.09-.37.13-.55s0-.12,0-.18l0-.1v0L61,20c.5-1.9,1.29-3.5,4.11-3.5a2.43,2.43,0,0,1,.8.12c.77.26,1.44,1,1.53,3.24l.12,5.69-.47.1-1,.21a46.42,46.42,0,0,0-10.59,3.34l-.35.17a15.65,15.65,0,0,0-2.69,1.76,9.88,9.88,0,0,0-1.09,1A8.32,8.32,0,0,0,49.24,38a8.46,8.46,0,0,0,.3,2.26c1,3.46,4.17,5.32,8.1,5.59.34,0,.68,0,1,0a12,12,0,0,0,2.59-.27A8.77,8.77,0,0,0,63,45a7.81,7.81,0,0,0,3-2.39l0,0a13.65,13.65,0,0,0,2-4.16l-.49,4.34c-.13,1.51.25,2.47,1.18,2.89a3.17,3.17,0,0,0,1.27.23,6.26,6.26,0,0,0,2-.63l1.21-.53c.86-.38,1.87-.83,3-1.29s2.5-1,4-1.43c.72-.22,1.48-.44,2.29-.65V37.89a7.39,7.39,0,0,1-.85.16,4.07,4.07,0,0,1-1.44,0,3.8,3.8,0,0,1-.51-.15,2.26,2.26,0,0,1-1.3-2.17V21.5A8.6,8.6,0,0,0,78,18.56a5.87,5.87,0,0,0-1.34-2.15,8.33,8.33,0,0,0-4.1-2.07,30.52,30.52,0,0,0-6.7-.55h-.8a22.14,22.14,0,0,0-9.61,2.25A10.4,10.4,0,0,0,52,18.78a5.62,5.62,0,0,0-1.26,3.45A4.49,4.49,0,0,0,51.14,24.12Zm11.57,6.21A7.62,7.62,0,0,0,61,32.55a9,9,0,0,0-.6,1.57,10.47,10.47,0,0,0-.36,2.79A6.19,6.19,0,0,0,60.4,39a3.63,3.63,0,0,0,.85,1.37,2.51,2.51,0,0,0,1.75.7c1.56,0,2.65-1.29,3.38-2.88l.13-.3a13.91,13.91,0,0,0,.85-3,11.81,11.81,0,0,0,.17-1.27V28.1a10.1,10.1,0,0,0-4.32,1.81C63,30.05,62.86,30.19,62.71,30.33ZM80.29,48.82c-1.33.47-2.48,1-3.51,1.4l-.79.35c-.68.3-1.4.62-2,.85l0,0a11,11,0,0,1-4,.9A9.47,9.47,0,0,1,65.2,51.1a16.79,16.79,0,0,1-6.54,1.24,20.91,20.91,0,0,1-2.83-.19,6,6,0,0,1,.05.85v3.06a6.05,6.05,0,0,1-.11,1.21,22.61,22.61,0,0,1,12.74-3.92,22.09,22.09,0,0,1,9.91,2.25,8.23,8.23,0,0,1,1.18-3.24c.19-.32.43-.65.51-.76a11.13,11.13,0,0,0,.18-2.34Zm-.22,2.92a.15.15,0,0,1,0-.06ZM87.4,78.56a10.32,10.32,0,0,1-1,1.47,3.47,3.47,0,0,1-.25.29,7.26,7.26,0,0,1,.91,1.77,3.59,3.59,0,0,1,.34-.17ZM79.34,83.7a1.6,1.6,0,0,0-.89.18,1.76,1.76,0,0,0-.51.62l0,.09,0,0a8.41,8.41,0,0,1-2.61,2.77A7.74,7.74,0,0,1,71,88.47a8.23,8.23,0,0,1-1.35-.1,5.94,5.94,0,0,1-4.71-4.15l-.12-.32A18,18,0,0,1,64,80.05c-.1-.91-.15-1.81-.2-2.65H77.69a6.3,6.3,0,0,0,1.64-.2c2.22-.6,3.13-2.52,3.13-5.18a12,12,0,0,0-5.37-9.69,15,15,0,0,0-8.58-2.48h-.12a16.11,16.11,0,0,0-9.34,3.06c-3.43,2.55-5.89,6.69-5.89,12.48,0,6.4,2.73,11,6.85,13.59a17.82,17.82,0,0,0,9.6,2.61c.47,0,.91,0,1.35,0a12.1,12.1,0,0,0,6.37-2.09,11.82,11.82,0,0,0,2-1.82c.23-.27.45-.54.67-.83l.41-.57,0,0,0-.07c.81-1.31.67-2.44-.47-2.44ZM63.9,70.9c-.06.83-.09,1.71-.1,2.65h8.5c0-.94,0-1.82,0-2.65a24.68,24.68,0,0,0-.44-3.85,1.62,1.62,0,0,0,0-.19c-.53-2.4-1.53-3.77-3.26-3.83h-.12c-2,0-3.23,1.43-3.91,4a1.17,1.17,0,0,0,0,.2A21.84,21.84,0,0,0,63.9,70.9Zm30,14.7c0,1.53-1.65,2-3.86,2.26V91h.35c2,0,4.1-.06,6.15-.07h6c2.07,0,4.15,0,6.21.08h.29V87.86c-2.63-.24-4.16-.73-4.16-2.26V74.16q0-.21.06-.45a11.13,11.13,0,0,1,1-3.84c.07-.12.14-.24.22-.35a3.54,3.54,0,0,1,3.13-1.6,3.76,3.76,0,0,1,1.32.31l.57.23h0a9.12,9.12,0,0,0,3.65.86,4.61,4.61,0,0,0,4.64-4.59,4.94,4.94,0,0,0-.14-1.23,4.8,4.8,0,0,0-3-3.36,6.06,6.06,0,0,0-2.23-.42,9.93,9.93,0,0,0-2.93.4,8.22,8.22,0,0,0-2.59,1.31,9.54,9.54,0,0,0-1.47,1.39l0,0A18.38,18.38,0,0,0,104,69.21l.92-6.67,0-.16c.14-1.45-.22-2.43-1.14-2.82a1.31,1.31,0,0,0-.21-.08,2.86,2.86,0,0,0-.87-.12,3.15,3.15,0,0,0-1.24.33c-.5.22-1.07.54-1.73.91l-.19.11c-.89.51-2,1.11-3.21,1.71a29.86,29.86,0,0,1-6.42,2.2v3.12c.23,0,.45-.08.67-.1a4.36,4.36,0,0,1,1.87.1c.89.29,1.44,1,1.44,2.45Zm14.86-33.66v1.3a6.84,6.84,0,0,1-.06.91,16.34,16.34,0,0,1,5.56-.92,12.05,12.05,0,0,1,2.24.21,9.1,9.1,0,0,1,.56-1.08c.2-.32.43-.65.51-.76a10.42,10.42,0,0,0,.18-2.34V47.17A24.3,24.3,0,0,1,108.76,51.94Zm9-15.06a14.11,14.11,0,0,0,1.39-6.15,20.94,20.94,0,0,0-.17-2.68c-.07-.57-.17-1.13-.29-1.66a16.57,16.57,0,0,0-.65-2.26,17.2,17.2,0,0,0-1.12-2.45,16,16,0,0,0-2.25-3.12c-.27-.29-.55-.57-.83-.84a15.59,15.59,0,0,0-4.45-2.94,10.4,10.4,0,0,0-4-.93c-.49,0-.94,0-1.37.05a13.22,13.22,0,0,0-2,.31,8.76,8.76,0,0,0-3.68,1.84c-.24.2-.46.41-.67.61v-.61c0-1.77-.42-2.69-2.2-2.69a2,2,0,0,0-.47.06,4.28,4.28,0,0,0-.43.14,16,16,0,0,0-2.14,1.11c-.89.5-1.94,1.1-3.2,1.69a29.74,29.74,0,0,1-4.6,1.74c-.58.16-1.18.32-1.82.46v3.12l.67-.11a5.31,5.31,0,0,1,1.5,0,2.22,2.22,0,0,1,.37.09c.89.29,1.44,1,1.44,2.45V49.26a21.73,21.73,0,0,1-.11,2.32c0,.06,0,.12,0,.18,0,.29-.07.57-.12.82a6.09,6.09,0,0,1-1.15,2.81,2.23,2.23,0,0,0-.56,1.46c0,.91.61,1.4,1.71,1.4a15.7,15.7,0,0,0,4.55-1.4l.23-.1h0l.87-.34c.93-.37,1.94-.76,3-1.16.61-.21,1.25-.43,1.91-.64a51.42,51.42,0,0,1,5.11-1.37V49.87l-.69.11A5.59,5.59,0,0,1,99,49.87a2.08,2.08,0,0,1-1.32-2.2V43.33a9.54,9.54,0,0,0,3.9,2.47,7.38,7.38,0,0,0,2.23.34h.37a12.56,12.56,0,0,0,3-.51,17.5,17.5,0,0,0,5.45-2.72A16.26,16.26,0,0,0,117.75,36.88Zm-19.9-.05A10.46,10.46,0,0,0,100,41a5.61,5.61,0,0,0,3.84,2.09H104c1.82,0,2.67-2.06,3.06-4.34a26.57,26.57,0,0,0,.31-4.23c0-6.61-.9-11.36-2.18-14.17-.92-2-2-3-3.14-3a4.45,4.45,0,0,0-2.7,1,12.57,12.57,0,0,0-1.65,1.47V36.11Zm26.4,12.43a21.73,21.73,0,0,1-.11,2.32c0,.06,0,.12,0,.18,0,.29-.08.57-.12.82a6.08,6.08,0,0,1-1.16,2.81,2.82,2.82,0,0,0-.48.88,2,2,0,0,0-.08.58c0,.91.62,1.4,1.72,1.4h.12a11.65,11.65,0,0,0,3.16-.9l1.27-.5.23-.1h0l.87-.34c.93-.37,1.94-.76,3.05-1.16A55.52,55.52,0,0,1,139,53.41l.78-.17V49.87L139,50a5.6,5.6,0,0,1-2.58-.11,2.09,2.09,0,0,1-1.31-2.2V43.33A9.51,9.51,0,0,0,139,45.8a7.4,7.4,0,0,0,2.24.34h.37a12.56,12.56,0,0,0,3-.51,17.44,17.44,0,0,0,5.46-2.72,15,15,0,0,0,6.5-12.18c0-8.76-5.15-14-9.76-15.95a10.49,10.49,0,0,0-4-.93c-.48,0-.94,0-1.37.05a13.64,13.64,0,0,0-2,.31,8.88,8.88,0,0,0-3.68,1.84c-.23.2-.45.41-.66.61v-.61c0-1.77-.43-2.69-2.2-2.69a2.1,2.1,0,0,0-.48.06,3.45,3.45,0,0,0-.42.14,16.62,16.62,0,0,0-2.15,1.11c-.88.5-1.93,1.1-3.19,1.69A28.8,28.8,0,0,1,122.32,18c-.64.19-1.32.37-2,.53v3.12l.66-.11a4.51,4.51,0,0,1,1.87.11c.89.29,1.44,1,1.44,2.45Zm11.07-12.43A10.33,10.33,0,0,0,137.48,41a5.61,5.61,0,0,0,3.84,2.09h.12c1.81,0,2.66-2.06,3.05-4.34a26.57,26.57,0,0,0,.31-4.23c0-6.61-.9-11.36-2.18-14.17-.91-2-2-3-3.14-3a4.45,4.45,0,0,0-2.7,1,11.92,11.92,0,0,0-1.64,1.47V36.11Q135.22,36.49,135.32,36.83ZM117.53,51.74a.32.32,0,0,0,0-.06A.32.32,0,0,1,117.53,51.74ZM130.4,63.11c-3.33,2.49-5.78,6.57-5.78,12.76a14.83,14.83,0,0,0,8.32,13.87,17.22,17.22,0,0,0,7.64,1.85c.26,0,.53,0,.8,0a17.09,17.09,0,0,0,8.72-2.94c3.69-2.56,6.51-6.85,6.51-13.24,0-7.42-3.84-11.75-8.4-13.88a18.22,18.22,0,0,0-7.57-1.66l-.73,0h0a17.38,17.38,0,0,0-8.4,2.5C131.12,62.6,130.76,62.84,130.4,63.11Zm7.33,21.56c.72,2,1.68,3.28,2.85,3.67a2.4,2.4,0,0,0,.8.13c1.75,0,2.73-1.61,3.23-4.21a33.47,33.47,0,0,0,.44-6.06,35.12,35.12,0,0,0-1.5-11.48c-.73-2-1.72-3.23-2.91-3.58a2.53,2.53,0,0,0-.73-.11c-1.6,0-2.59,1.51-3.14,4a30.8,30.8,0,0,0-.53,6.3A35.16,35.16,0,0,0,137.73,84.67Zm.28-.83a.08.08,0,0,1,0,0Zm5.31-16.11v0Z"/><rect class="cls-1" x="42" y="38" width="86" height="28"/><rect class="cls-1" x="77" y="41" width="59" height="42"/><path class="cls-3" d="M25.53,7c-5.87,0-11.37.24-17.92,0v3.06c2.69.18,4,.3,4,2.51V38.8c0,2-1.53,2.45-4.59,3V45c2.81-.37,5.75-1.22,10.09-1.22C23,43.76,26.51,45,30.24,45c1.22,0,16-.12,16-19C46.27,11.71,37.4,7,25.53,7Zm1.53,35c-2-.06-4,0-4-1.65V10.24a14.92,14.92,0,0,1,1.72-.12c5.38.18,8.68,4.77,8.68,15.41C33.42,35,31.59,42.05,27.06,42Z"/><path class="cls-3" d="M78.48,35.5v-14c0-7.1-6.3-7.71-12.6-7.71-8.56,0-15.11,3.73-15.11,8.44,0,2.38,1.35,4,4.34,4,8.44,0,3-9.72,10-9.72,1,0,2.21.43,2.33,3.36l.12,5.69c-13.09,2.63-18.29,6-18.29,12.42,0,5.26,4.22,7.89,9.42,7.89,6.06,0,8.2-3.86,9.36-7.46l-.49,4.34c-.18,2.08.61,3.12,2.45,3.12,1.53,0,5.5-2.69,12.6-4.53V37.89C80.19,38.5,78.48,37.89,78.48,35.5ZM63,41.07c-1.83,0-2.93-1.78-2.93-4.16s.67-7.52,7.46-8.81v5.57C67.35,36.05,66.06,41.07,63,41.07Z"/><path class="cls-3" d="M105.38,13.85c-4.16,0-6.24,1.35-7.71,2.81v-.61c0-1.77-.42-2.69-2.2-2.69s-5.2,3.55-12.66,5.2v3.12c2.26-.43,4-.06,4,2.45V49.26c0,6.42-2,5.69-2,7.59,0,.91.61,1.4,1.71,1.4,2.33,0,7.65-3.3,15.72-5V49.87c-2.87.49-4.59.19-4.59-2.32V43.33a8.62,8.62,0,0,0,6.18,2.81c5.93,0,15.29-5.75,15.29-15.41C119.14,19.23,110.27,13.85,105.38,13.85ZM104,43.09c-2.26,0-5.26-2.27-6.3-7V19.78c1.47-1.53,2.76-2.44,4.35-2.44,2.69,0,5.32,5.87,5.32,17.18C107.34,37.46,107,43.09,104,43.09Z"/><path class="cls-3" d="M142.84,13.85c-4.16,0-6.23,1.35-7.7,2.81v-.61c0-1.77-.43-2.69-2.2-2.69s-5.2,3.55-12.66,5.2v3.12c2.26-.43,4-.06,4,2.45V49.26c0,6.42-2,5.69-2,7.59,0,.91.62,1.4,1.72,1.4,2.32,0,7.64-3.3,15.72-5V49.87c-2.88.49-4.59.19-4.59-2.32V43.33a8.62,8.62,0,0,0,6.18,2.81c5.93,0,15.29-5.75,15.29-15.41C156.61,19.23,147.74,13.85,142.84,13.85Zm-1.4,29.24c-2.26,0-5.26-2.27-6.3-7V19.78c1.47-1.53,2.75-2.44,4.34-2.44,2.69,0,5.32,5.87,5.32,17.18C144.8,37.46,144.43,43.09,141.44,43.09Z"/><path class="cls-3" d="M49.38,56.06V53c-6.85.18-12.94.18-19.79,0v3.06c3.49.18,3.65.73,3.65,2.26V70.37H23.15V58.32c0-1.53.16-2.08,3.64-2.26V53c-6.85.18-12.88.18-19.79,0v3.06c3.55.18,4.71.73,4.71,2.26V85.6c0,1.53-1.16,2.14-4.71,2.26V91c6.91-.18,12.94-.18,19.79,0V87.86c-3.48-.12-3.64-.73-3.64-2.26V73.49H33.24V85.6c0,1.53-.16,2.14-3.65,2.26V91c6.85-.18,12.94-.18,19.79,0V87.86c-3.48-.12-4.64-.73-4.64-2.26V58.32C44.74,56.79,45.9,56.24,49.38,56.06Z"/><path class="cls-3" d="M80,83.7h-.67c-.86,0-1,.19-1.47.92A7.34,7.34,0,0,1,71,88.47c-6.36,0-6.91-6.42-7.16-11.07H77.69c3.42,0,4.77-2.14,4.77-5.38,0-5.87-5.08-12.17-13.95-12.17-7.34,0-15.35,5.08-15.35,15.54,0,10.64,7.52,16.2,16.45,16.2,5,0,8.32-1.71,10.83-5.38C81.3,84.86,81.17,83.7,80,83.7ZM72.3,73.55H63.8C63.86,66.94,65.09,63,68.39,63,71.45,63,72.3,67,72.3,73.55Z"/><path class="cls-3" d="M114.26,59.73c-4.64,0-8,2.51-10.27,9.48l.92-6.67c.24-2-.43-3.18-2.2-3.18-2,0-5.33,3.61-12.79,5.26v3.12c2.27-.43,4-.06,4,2.45V85.6c0,1.53-1.65,2-3.86,2.26V91c6.3-.12,12.73-.12,19,0V87.86c-2.63-.24-4.16-.73-4.16-2.26V74.16c.3-2,.61-6.24,4.46-6.24,1.41,0,2.88,1.41,5.57,1.41a4.61,4.61,0,0,0,4.64-4.59A5,5,0,0,0,114.26,59.73Z"/><path class="cls-3" d="M140.64,59.85c-6.91,0-16,4.1-16,16,0,11,9.11,15.72,16,15.72s16-4.71,16-16.2S147.49,59.85,140.64,59.85Zm4.41,18.35c0,5.93-.8,10.27-3.67,10.27-3.18,0-5.14-5.93-5.14-15.16,0-6,1-10.28,3.67-10.28C143.09,63,145.05,68.72,145.05,78.2Z"/></svg>