<svg xmlns="http://www.w3.org/2000/svg" viewBox="0 0 72.94 38.63"><defs><style>.cls-1{fill:#1a202c;}.cls-2{fill:#fff;}</style></defs><g id="Capa_2" data-name="Capa 2"><g id="Capa_1-2" data-name="Capa 1"><path class="cls-1" d="M72.94,6.46V4a4,4,0,0,0-4.11-4C63.46.15,58.77.15,53.45,0a4.1,4.1,0,0,0-1.21.15A4.1,4.1,0,0,0,51,0C45.71.15,41,.15,35.65,0a4,4,0,0,0-2.9,1.13,4,4,0,0,0-1.16,2.41C27.84,1.06,23.21.23,18.62.23c-1.65,0-3.21,0-4.75,0-3,0-5.88.09-9.24,0a4,4,0,0,0-4.15,4V6.67a4,4,0,0,0,3.14,3.91V28.07l-.34.06A4,4,0,0,0,0,32.07v2.54a4,4,0,0,0,4.52,4c1-.14,1.81-.29,2.58-.43A23.47,23.47,0,0,1,12,37.63a33.06,33.06,0,0,1,5.25.45l.54.08a30.24,30.24,0,0,0,4.58.45,13.05,13.05,0,0,0,8.81-2.55c.2-.16.38-.33.56-.49a3.95,3.95,0,0,0,3.95,2.94c5.37-.15,10.06-.15,15.38,0a3.8,3.8,0,0,0,1.21-.16,3.8,3.8,0,0,0,1.21.16c5.32-.15,10-.15,15.38,0a4,4,0,0,0,4.11-4V32a4,4,0,0,0-3.71-4V10.45A4,4,0,0,0,72.94,6.46Z"/><path class="cls-2" d="M18.62,4.23c-4.63,0-9,.19-14.14,0V6.67c2.12.15,3.14.25,3.14,2v21c0,1.56-1.21,2-3.62,2.4v2.54a48.71,48.71,0,0,1,8-1c4.68,0,7.43,1,10.37,1,1,0,12.64-.1,12.64-15.22C35,8,28,4.23,18.62,4.23Zm1.2,28c-1.54-.05-3.18,0-3.18-1.32V6.82A11,11,0,0,1,18,6.72c4.24.15,6.85,3.82,6.85,12.33C24.84,26.63,23.39,32.26,19.82,32.21Z"/><path class="cls-2" d="M69.71,6.46V4c-5.52.15-10.43.15-16,0V6.46c2.81.14,2.94.59,2.94,1.81V18H48.56V8.27c0-1.22.13-1.67,2.94-1.81V4c-5.52.15-10.39.15-16,0V6.46c2.86.14,3.8.59,3.8,1.81V30.19c0,1.22-.94,1.71-3.8,1.81v2.51c5.57-.15,10.44-.15,16,0V32c-2.81-.1-2.94-.59-2.94-1.81V20.46h8.13v9.73c0,1.22-.13,1.71-2.94,1.81v2.51c5.53-.15,9.63-.15,15.15,0V32c-2.81-.1-2.94-.59-2.94-1.81V8.27C66,7.05,66.9,6.6,69.71,6.46Z"/></g></g></svg>